<svg aria-hidden="true" style="position: absolute; width: 0; height: 0; overflow: hidden;" version="1.1" xmlns="http://www.w3.org/2000/svg" xmlns:xlink="http://www.w3.org/1999/xlink">
  <defs>
    <symbol id="icon-eye" viewBox="0 0 32 32">
      <path stroke-linejoin="round" stroke-linecap="round" stroke-miterlimit="4" stroke-width="3.2" d="M1.333 16c0 0 5.333-10.667 14.667-10.667s14.667 10.667 14.667 10.667c0 0-5.333 10.667-14.667 10.667s-14.667-10.667-14.667-10.667z"></path>
      <path stroke-linejoin="round" stroke-linecap="round" stroke-miterlimit="4" stroke-width="3.2" d="M16 20c2.209 0 4-1.791 4-4s-1.791-4-4-4c-2.209 0-4 1.791-4 4s1.791 4 4 4z"></path>
    </symbol>
    <symbol id="icon-eye-off" viewBox="0 0 32 32">
      <path stroke-linejoin="round" stroke-linecap="round" stroke-miterlimit="4" stroke-width="3.2" d="M23.92 23.92c-2.279 1.737-5.055 2.7-7.92 2.747-9.333 0-14.667-10.667-14.667-10.667 1.659-3.091 3.959-5.791 6.747-7.92M13.2 5.653c0.918-0.215 1.857-0.322 2.8-0.32 9.333 0 14.667 10.667 14.667 10.667-0.809 1.514-1.775 2.94-2.88 4.253M18.827 18.827c-0.366 0.393-0.808 0.708-1.298 0.927s-1.020 0.336-1.557 0.346-1.071-0.089-1.569-0.291c-0.498-0.201-0.95-0.5-1.33-0.88s-0.679-0.832-0.88-1.33c-0.201-0.498-0.3-1.032-0.29-1.569s0.127-1.067 0.346-1.557 0.534-0.932 0.927-1.298"></path>
      <path stroke-linejoin="round" stroke-linecap="round" stroke-miterlimit="4" stroke-width="3.2" d="M1.333 1.333l29.333 29.333"></path>
    </symbol>
    <symbol id="icon-heart" viewBox="0 0 36 32">
      <path stroke-linejoin="round" stroke-linecap="round" stroke-miterlimit="4" stroke-width="2.9091" d="M31.853 3.994c-0.805-0.805-1.76-1.444-2.812-1.88s-2.179-0.66-3.318-0.66-2.266 0.224-3.318 0.66c-1.052 0.436-2.007 1.075-2.812 1.88l-1.67 1.67-1.67-1.67c-1.626-1.626-3.831-2.539-6.13-2.539s-4.504 0.913-6.13 2.539c-1.626 1.626-2.539 3.831-2.539 6.13s0.913 4.504 2.539 6.13l13.93 13.93 13.93-13.93c0.805-0.805 1.444-1.76 1.88-2.812s0.66-2.179 0.66-3.318c0-1.138-0.224-2.266-0.66-3.318s-1.074-2.007-1.88-2.812z"></path>
    </symbol>
    <symbol id="icon-heart-red" viewBox="0 0 36 32">
      <path fill="#f03f3b" style="fill: var(--color1, #f03f3b); stroke: var(--color1, #f03f3b)" stroke="#f03f3b" stroke-linejoin="round" stroke-linecap="round" stroke-miterlimit="4" stroke-width="2.9091" d="M31.853 3.994c-0.805-0.805-1.76-1.444-2.812-1.88s-2.179-0.66-3.318-0.66-2.266 0.224-3.318 0.66c-1.052 0.436-2.007 1.075-2.812 1.88l-1.67 1.67-1.67-1.67c-1.626-1.626-3.831-2.539-6.13-2.539s-4.504 0.913-6.13 2.539c-1.626 1.626-2.539 3.831-2.539 6.13s0.913 4.504 2.539 6.13l13.93 13.93 13.93-13.93c0.805-0.805 1.444-1.76 1.88-2.812s0.66-2.179 0.66-3.318c0-1.138-0.224-2.266-0.66-3.318s-1.074-2.007-1.88-2.812z"></path>
    </symbol>
    <symbol id="icon-loc" viewBox="0 0 28 32">
      <path stroke-linejoin="round" stroke-linecap="round" stroke-miterlimit="4" stroke-width="3" d="M25.5 13.333c0 9.333-12 17.333-12 17.333s-12-8-12-17.333c0-3.183 1.264-6.235 3.515-8.485s5.303-3.515 8.485-3.515c3.183 0 6.235 1.264 8.485 3.515s3.515 5.303 3.515 8.485z"></path>
    </symbol>
    <symbol id="icon-person" viewBox="0 0 32 32">
      <path fill="#f03f3b" style="fill: var(--color1, #f03f3b)" d="M16 0c2.122 0 4.157 0.843 5.657 2.343s2.343 3.535 2.343 5.657-0.843 4.157-2.343 5.657c-1.5 1.5-3.535 2.343-5.657 2.343s-4.157-0.843-5.657-2.343c-1.5-1.5-2.343-3.535-2.343-5.657s0.843-4.157 2.343-5.657c1.5-1.5 3.535-2.343 5.657-2.343zM16 20c8.84 0 16 3.58 16 8v4h-32v-4c0-4.42 7.16-8 16-8z"></path>
    </symbol>
    <symbol id="icon-Star-2" viewBox="0 0 34 32">
      <path fill="#ffc531" style="fill: var(--color2, #ffc531); stroke: var(--color2, #ffc531)" stroke="#ffc531" stroke-linejoin="miter" stroke-linecap="butt" stroke-miterlimit="4" stroke-width="2.7429" d="M20.319 9.43c0.364 0.689 1.027 1.171 1.795 1.304l8.685 1.5-6.143 6.326c-0.543 0.559-0.796 1.338-0.685 2.109l1.254 8.725-7.911-3.888-0.268-0.114c-0.544-0.193-1.139-0.193-1.683 0l-0.268 0.114-7.913 3.888 1.257-8.725c0.111-0.771-0.142-1.55-0.685-2.109l-6.145-6.326 8.688-1.5c0.768-0.133 1.431-0.614 1.795-1.304l4.114-7.797 4.114 7.797z"></path>
    </symbol>
    <symbol id="icon-burger" viewBox="0 0 24 24">
      <path stroke-linecap="round" stroke-linejoin="round" stroke-width="1.5" stroke="currentColor" d="M3.75 6.75h16.5M3.75 12h16.5m-16.5 5.25h16.5" />
    </symbol>
  </defs>
</svg>
